<svg id="inventory_black_24dp" xmlns="http://www.w3.org/2000/svg" width="24" height="24" viewBox="0 0 24 24">
  <g id="Group_23484" data-name="Group 23484">
    <rect id="Rectangle_3015" data-name="Rectangle 3015" width="24" height="24" fill="none"/>
  </g>
  <g id="Group_23486" data-name="Group 23486" transform="translate(1.64)">
    <g id="Group_23485" data-name="Group 23485" transform="translate(3 1)">
      <path id="Path_15619" data-name="Path 15619" d="M4.833,5.2H6.667V8.35h9.167V5.2h1.833v5.25H19.5V5.2a1.986,1.986,0,0,0-1.833-2.1H13.835A2.813,2.813,0,0,0,11.25,1,2.813,2.813,0,0,0,8.665,3.1H4.833A1.986,1.986,0,0,0,3,5.2V19.9A1.986,1.986,0,0,0,4.833,22h5.5V19.9h-5.5ZM11.25,3.1a.993.993,0,0,1,.917,1.05A.993.993,0,0,1,11.25,5.2a.993.993,0,0,1-.917-1.05A.993.993,0,0,1,11.25,3.1Z" transform="translate(-3 -1)" fill="#10c4d3"/>
      <path id="Path_15620" data-name="Path 15620" d="M21,11.5,15.51,17,12.5,14,11,15.5,15.51,20l6.99-7Z" transform="translate(-4.5)" fill="#10c4d3"/>
    </g>
  </g>
</svg>
