<svg xmlns="http://www.w3.org/2000/svg" width="24" height="24" viewBox="0 0 24 24">
  <g id="Group_23496" data-name="Group 23496" transform="translate(2156 21191)">
    <g id="Group_23487" data-name="Group 23487" transform="translate(-1 30)">
      <g id="pending_actions_black_24dp" transform="translate(-2155 -21221)">
        <rect id="Rectangle_3016" data-name="Rectangle 3016" width="24" height="24" fill="none"/>
        <path id="Path_15621" data-name="Path 15621" d="M18,3H14.82A2.988,2.988,0,0,0,9.18,3H6A2.006,2.006,0,0,0,4,5V20a2.006,2.006,0,0,0,2,2h6.11a6.743,6.743,0,0,1-1.42-2H6V5H8V8h8V5h2v5.08a7.03,7.03,0,0,1,2,.6V5A2.006,2.006,0,0,0,18,3ZM12,5a1,1,0,1,1,1-1A1,1,0,0,1,12,5Z" fill="#10c4d3"/>
      </g>
    </g>
    <path id="Path_15632" data-name="Path 15632" d="M7,2a5,5,0,1,0,5,5A5,5,0,0,0,7,2ZM6,9.5,3.5,7l.7-.7L6,8.085l3.8-3.8.7.71Z" transform="translate(-2146 -21181)" fill="#10c4d3"/>
  </g>
</svg>
