<svg xmlns="http://www.w3.org/2000/svg" xmlns:xlink="http://www.w3.org/1999/xlink" width="1026" height="190" viewBox="0 0 1026 190">
  <defs>
    <linearGradient id="linear-gradient" y1="0.5" x2="1" y2="0.5" gradientUnits="objectBoundingBox">
      <stop offset="0" stop-color="#10c4d3"/>
      <stop offset="0.257" stop-color="#11c7ce"/>
      <stop offset="0.56" stop-color="#17cfbf"/>
      <stop offset="0.885" stop-color="#20dea8"/>
      <stop offset="1" stop-color="#24e59e"/>
    </linearGradient>
    <clipPath id="clip-_1_VW-Logo">
      <rect width="1026" height="190"/>
    </clipPath>
  </defs>
  <g id="_1_VW-Logo" data-name="1_VW-Logo" clip-path="url(#clip-_1_VW-Logo)">
    <rect width="1026" height="190" fill="#fff"/>
    <g id="Group_3" data-name="Group 3" transform="translate(-29.291 -42.944)">
      <g id="Group_1" data-name="Group 1" transform="translate(38.291 51.944)">
        <path id="Path_1" data-name="Path 1" d="M238.749,95A50.241,50.241,0,0,0,216.67,60.244a.287.287,0,0,0-.078-.06,49.823,49.823,0,0,0-20.682-7.762,49.293,49.293,0,0,0-6.891-.478,50,50,0,0,0-19.985,4.139c-8.078,3.5-20.268,15.1-20.268,15.1l-9.979,9.988-14.14-14.14-.105.105a50.149,50.149,0,0,0-36-15.2,49.167,49.167,0,0,0-6.891.478,49.792,49.792,0,0,0-20.682,7.762.283.283,0,0,0-.087.06A50.327,50.327,0,0,0,38.8,94.988a50.893,50.893,0,0,0-.514,7.2,50.069,50.069,0,0,0,14.44,35.249l.754.754,14.14,14.14,42.7,42.7,14.263-14.263,4-4,10.189-10.183,9.979,9.982,4.206,4.2,14.263,14.263,14.224-14.224.072-.072,14.224-14.224,14.191-14.185,14.6-14.608A50.265,50.265,0,0,0,238.749,95Zm-26.988,26.988a29.906,29.906,0,0,1-2.959,2.959l-13.121,13.127-13.866,13.86-14.62,14.62L153.01,152.367l.072-.072,8.192-8.2,6.032-6.023,1.727-1.733,6.948-6.948,19.727-19.727.051-.045.685-.685.045-.051a10.1,10.1,0,0,0-13.833-14.623l-13.623,13.626-1.766,1.772-5.482,5.476-13.019,13.016-1.7,1.7-8.216,8.213-.072.072-.063-.066-8.222-8.219-35.6-35.6a10.1,10.1,0,0,0-13.821,14.629l.045.051.685.685.051.045a1.135,1.135,0,0,0,.087.078v.006l34.341,34.341,8.207,8.207.063.066-14.185,14.191-.072-.072-1.766-1.766L96.072,152.256l-.324-.324-13.86-13.86L68.811,124.995c-.378-.333-.748-.664-1.114-1.009q-1.018-.987-1.956-2.061A30.15,30.15,0,0,1,75.6,74.957c.033-.015.066-.033.1-.045a30.147,30.147,0,0,1,32.833,4.719V79.3l30.256,30.253.457-.463,9.523-9.523,4.206-4.206,16.062-15.729a30.147,30.147,0,0,1,32.833-4.719c.033.012.06.03.093.045a30.151,30.151,0,0,1,9.8,47.027Z" transform="translate(-38.291 -51.944)" fill="url(#linear-gradient)"/>
        <path id="Path_2" data-name="Path 2" d="M95.523,113.819l-4.283,4.276-9.98,9.987L67,113.819l4.074-4.081L81.26,99.555Z" transform="translate(19.234 43.468)" fill="url(#linear-gradient)"/>
      </g>
      <g id="Group_2" data-name="Group 2" transform="translate(260.819 77.427)">
        <path id="Path_3" data-name="Path 3" d="M215.817,60.977a11.381,11.381,0,0,1,7.342,2.646,8.2,8.2,0,0,1,3.265,6.618,10.822,10.822,0,0,1-.979,4.136l-45.2,98.587a10.76,10.76,0,0,1-4.488,4.878,12.83,12.83,0,0,1-12.89,0,10.738,10.738,0,0,1-4.485-4.878L113.348,74.378a10.557,10.557,0,0,1-.979-3.971,8.275,8.275,0,0,1,3.346-6.783,11.917,11.917,0,0,1,7.588-2.646,9.923,9.923,0,0,1,5.14,1.406,9.335,9.335,0,0,1,3.671,4.218l37.526,84.529L207.168,66.6A8.909,8.909,0,0,1,215.817,60.977Z" transform="translate(-112.369 -59.325)" fill="#0c80e3"/>
        <path id="Path_4" data-name="Path 4" d="M156.857,79.367a10.487,10.487,0,0,1-3.262-8.024,10.215,10.215,0,0,1,3.262-7.939q3.262-2.978,8.811-2.977A12.633,12.633,0,0,1,174.4,63.4a10.105,10.105,0,0,1,3.343,7.939,10.5,10.5,0,0,1-3.262,8.024q-3.262,3.06-8.811,3.058T156.857,79.367Zm1.55,98.753q-2.857-2.564-2.857-7.363V106.907q0-4.794,2.857-7.279a10.679,10.679,0,0,1,7.261-2.481,10.988,10.988,0,0,1,7.342,2.481q2.938,2.483,2.938,7.279v63.849q0,4.8-2.938,7.363a10.769,10.769,0,0,1-7.342,2.562A10.47,10.47,0,0,1,158.407,178.12Z" transform="translate(-29.753 -60.427)" fill="#0c80e3"/>
        <path id="Path_5" data-name="Path 5" d="M225.482,163.8a6.751,6.751,0,0,1-3.181,6.038q-3.181,2.068-9.057,1.736l-4.4-.33q-27.414-1.983-27.411-29.775v-36.06H173.27q-4.407,0-6.771-1.986a8.262,8.262,0,0,1,0-11.577q2.361-1.987,6.771-1.986h8.159V74.647a9.369,9.369,0,0,1,2.773-7.113,10.42,10.42,0,0,1,7.5-2.646,10.206,10.206,0,0,1,7.345,2.646,9.38,9.38,0,0,1,2.773,7.113V89.865h13.869q4.407,0,6.771,1.986a8.262,8.262,0,0,1,0,11.577q-2.366,1.987-6.771,1.986H201.823v37.55q0,12.243,11.094,13.067l4.407.33Q225.479,156.857,225.482,163.8Z" transform="translate(-8.637 -51.489)" fill="#0c80e3"/>
        <path id="Path_6" data-name="Path 6" d="M249.464,80.9q8.075,8.354,8.078,25.39v40.361a9.42,9.42,0,0,1-2.61,7.032,9.811,9.811,0,0,1-7.18,2.562,9.47,9.47,0,0,1-6.936-2.646,9.31,9.31,0,0,1-2.692-6.948v-3.638a21.482,21.482,0,0,1-8.73,10.09,25.924,25.924,0,0,1-13.788,3.638,31.65,31.65,0,0,1-14.521-3.307,25.925,25.925,0,0,1-10.28-9.1,23.22,23.22,0,0,1-3.752-12.905q0-8.931,4.488-14.059t14.6-7.444q10.116-2.316,27.9-2.316h4.079V103.8q0-8.1-3.428-11.827T223.6,88.255a34.866,34.866,0,0,0-9.628,1.406q-4.893,1.406-11.583,4.052-4.245,2.154-6.2,2.151a6.092,6.092,0,0,1-4.812-2.151A8.242,8.242,0,0,1,189.5,88.09a8.544,8.544,0,0,1,1.385-4.878,13.167,13.167,0,0,1,4.65-3.887,52.762,52.762,0,0,1,13.626-4.963,69.341,69.341,0,0,1,15.582-1.82Q241.384,72.541,249.464,80.9Zm-16.48,55.414q5.137-5.542,5.14-14.308v-3.476h-2.938a110.706,110.706,0,0,0-16.969.994q-6.038.991-8.648,3.473a8.915,8.915,0,0,0-2.61,6.783,11.291,11.291,0,0,0,3.674,8.684,12.844,12.844,0,0,0,9.054,3.388A17.308,17.308,0,0,0,232.984,136.309Z" transform="translate(37.296 -36.151)" fill="#0c80e3"/>
        <path id="Path_7" data-name="Path 7" d="M370.5,62.632a10.44,10.44,0,0,1,12.4.826,8.333,8.333,0,0,1,2.857,6.618,17,17,0,0,1-.814,4.3L349.855,172.8a10.223,10.223,0,0,1-4.326,5.128,12.584,12.584,0,0,1-6.609,1.817,13.008,13.008,0,0,1-6.69-1.817,9.315,9.315,0,0,1-4.242-5.128L300.906,94.889,273.329,172.8a10.216,10.216,0,0,1-4.323,5.128,12.925,12.925,0,0,1-13.218,0,9.4,9.4,0,0,1-4.16-5.128l-35.08-98.422a14.115,14.115,0,0,1-.817-4.3,8.131,8.131,0,0,1,3.022-6.618,11.328,11.328,0,0,1,12.971-.826,9.2,9.2,0,0,1,3.752,4.963l27.736,80.888L291.768,68.09a10.462,10.462,0,0,1,3.752-5.209,9.492,9.492,0,0,1,5.711-1.9,9.862,9.862,0,0,1,5.795,1.9,10.3,10.3,0,0,1,3.833,5.374L338.6,149.474l28.225-81.879A9.313,9.313,0,0,1,370.5,62.632Z" transform="translate(94.766 -59.325)" fill="#0c80e3"/>
        <path id="Path_8" data-name="Path 8" d="M345.127,135.4a9.036,9.036,0,0,1,1.712,5.789q0,5.132-6.038,8.6a54.011,54.011,0,0,1-12.563,5.044,51.162,51.162,0,0,1-13.38,1.9q-19.254,0-30.511-11.247t-11.259-30.767a47.767,47.767,0,0,1,4.893-22,35.919,35.919,0,0,1,13.788-14.888,38.655,38.655,0,0,1,20.151-5.293,35.783,35.783,0,0,1,18.763,4.8,32.39,32.39,0,0,1,12.4,13.563q4.4,8.773,4.4,20.679,0,7.11-6.2,7.11H293.159q.978,11.414,6.362,16.789t15.663,5.377a29.209,29.209,0,0,0,9.219-1.325,89.179,89.179,0,0,0,9.057-3.638q4.893-2.645,7.179-2.646A5.472,5.472,0,0,1,345.127,135.4ZM299.112,92.391q-4.979,5.295-5.954,15.218h36.877q-.333-10.089-4.9-15.3T312.411,87.1Q304.093,87.1,299.112,92.391Z" transform="translate(209.71 -36.151)" fill="#0c80e3"/>
        <path id="Path_9" data-name="Path 9" d="M354.63,74.5q2.451,2.149,2.448,6.45,0,4.465-2.121,6.618t-7.669,2.812l-4.9.5q-9.625.991-14.113,6.618t-4.488,14.062V146.29q0,4.8-2.935,7.363a10.779,10.779,0,0,1-7.342,2.562,10.478,10.478,0,0,1-7.264-2.562q-2.857-2.564-2.854-7.363V82.275a8.917,8.917,0,0,1,2.854-7.113,10.446,10.446,0,0,1,7.1-2.481,9.729,9.729,0,0,1,6.852,2.4,8.858,8.858,0,0,1,2.613,6.864v6.615a24.4,24.4,0,0,1,9.216-11.247,28,28,0,0,1,13.626-4.467l2.283-.165A8.708,8.708,0,0,1,354.63,74.5Z" transform="translate(270.446 -35.96)" fill="#0c80e3"/>
        <path id="Path_10" data-name="Path 10" d="M398.439,169.545a9.824,9.824,0,0,1-2.692,6.783,8.232,8.232,0,0,1-6.281,2.977,9.515,9.515,0,0,1-6.69-2.977L344.6,141.259v28.285q0,4.8-2.938,7.279a10.972,10.972,0,0,1-7.342,2.481,10.659,10.659,0,0,1-7.261-2.481q-2.857-2.483-2.857-7.279V70.792q0-4.794,2.857-7.279a10.659,10.659,0,0,1,7.261-2.481,10.972,10.972,0,0,1,7.342,2.481Q344.6,66,344.6,70.792v62.2l34.918-33.912A9.162,9.162,0,0,1,386.2,96.1a8.874,8.874,0,0,1,6.525,2.812,9.121,9.121,0,0,1,2.776,6.618,9.712,9.712,0,0,1-3.1,6.948l-25.618,24.149,28.391,25.807A9.643,9.643,0,0,1,398.439,169.545Z" transform="translate(312.133 -59.215)" fill="#0c80e3"/>
        <path id="Path_11" data-name="Path 11" d="M356.473,149.626a9.881,9.881,0,0,1-5.224-8.934,7.894,7.894,0,0,1,1.8-5.374,5.614,5.614,0,0,1,4.407-2.07q2.771,0,7.669,2.646a70.669,70.669,0,0,0,9.544,3.806,38.325,38.325,0,0,0,11.013,1.322q6.854,0,10.688-2.316a7.192,7.192,0,0,0,3.836-6.45,6.284,6.284,0,0,0-1.55-4.467,14.216,14.216,0,0,0-5.548-3.061,116.769,116.769,0,0,0-12.157-3.223q-14.523-2.978-20.8-8.438t-6.281-15.053A21.918,21.918,0,0,1,358.1,84.863a27.519,27.519,0,0,1,11.667-9.1,41.976,41.976,0,0,1,16.885-3.226,50.028,50.028,0,0,1,13.218,1.736A39.986,39.986,0,0,1,411.3,79.324q5.218,3.307,5.221,8.766a8.568,8.568,0,0,1-1.793,5.542,5.469,5.469,0,0,1-4.407,2.232,8.676,8.676,0,0,1-3.509-.745,46.127,46.127,0,0,1-4.323-2.232,67.925,67.925,0,0,0-8.159-3.722,25.146,25.146,0,0,0-8.483-1.241q-6.043,0-9.547,2.481a7.872,7.872,0,0,0-3.509,6.783,6.891,6.891,0,0,0,3.59,6.284q3.591,2.154,13.869,4.3a78.315,78.315,0,0,1,17.132,5.293q6.2,2.978,8.895,7.444t2.692,11.415a21.3,21.3,0,0,1-9.219,18.03q-9.219,6.786-24.558,6.78Q367.4,156.736,356.473,149.626Z" transform="translate(366.34 -36.151)" fill="#0c80e3"/>
      </g>
    </g>
  </g>
</svg>
