<svg xmlns="http://www.w3.org/2000/svg" width="36" height="44" viewBox="0 0 36 44">
    <g id="_1077063" data-name="1077063" transform="translate(0)">
        <path id="Path_14969" data-name="Path 14969" d="M97.309,21.1a9.817,9.817,0,0,0,7.267-3.091,10.348,10.348,0,0,0,3.011-7.46,10.348,10.348,0,0,0-3.011-7.46,10.088,10.088,0,0,0-14.533,0,10.347,10.347,0,0,0-3.011,7.459,10.348,10.348,0,0,0,3.011,7.46A9.82,9.82,0,0,0,97.309,21.1Zm-5.5-16.2a7.633,7.633,0,0,1,11,0,7.731,7.731,0,0,1,2.279,5.644,7.73,7.73,0,0,1-2.279,5.645,7.632,7.632,0,0,1-11,0,7.729,7.729,0,0,1-2.279-5.645A7.73,7.73,0,0,1,91.811,4.906Zm0,0" transform="translate(-79.586 0)" fill="#475f7b"/>
        <path id="Path_14970" data-name="Path 14970" d="M35.913,259.841a26.432,26.432,0,0,0-.35-2.768,22.08,22.08,0,0,0-.671-2.783,13.854,13.854,0,0,0-1.127-2.6,9.767,9.767,0,0,0-1.7-2.248,7.478,7.478,0,0,0-2.441-1.557,8.324,8.324,0,0,0-3.116-.572,3.137,3.137,0,0,0-1.689.727c-.506.335-1.1.723-1.76,1.152a10.01,10.01,0,0,1-2.277,1.018,8.716,8.716,0,0,1-5.57,0,9.981,9.981,0,0,1-2.275-1.018c-.655-.425-1.247-.812-1.761-1.152a3.133,3.133,0,0,0-1.689-.727,8.314,8.314,0,0,0-3.116.573,7.472,7.472,0,0,0-2.441,1.557,9.77,9.77,0,0,0-1.7,2.248,13.879,13.879,0,0,0-1.127,2.6,22.136,22.136,0,0,0-.67,2.783,26.254,26.254,0,0,0-.35,2.769c-.057.836-.086,1.707-.086,2.587a7.332,7.332,0,0,0,2.128,5.5,7.594,7.594,0,0,0,5.484,2.03H28.388a7.594,7.594,0,0,0,5.483-2.03,7.329,7.329,0,0,0,2.128-5.5c0-.883-.03-1.753-.087-2.587Zm-3.785,6.231a5.111,5.111,0,0,1-3.74,1.323H7.611a5.111,5.111,0,0,1-3.74-1.323,4.79,4.79,0,0,1-1.343-3.644c0-.821.027-1.631.08-2.409a23.683,23.683,0,0,1,.316-2.493,19.526,19.526,0,0,1,.59-2.453,11.3,11.3,0,0,1,.917-2.111A7.243,7.243,0,0,1,5.68,251.3,4.959,4.959,0,0,1,7.3,250.276a5.742,5.742,0,0,1,1.991-.39c.089.048.246.139.5.308.52.344,1.119.736,1.781,1.166a12.439,12.439,0,0,0,2.858,1.3,11.207,11.207,0,0,0,7.125,0,12.454,12.454,0,0,0,2.859-1.3c.678-.44,1.26-.821,1.78-1.165.255-.169.413-.26.5-.308a5.746,5.746,0,0,1,1.992.39,4.966,4.966,0,0,1,1.624,1.025,7.221,7.221,0,0,1,1.249,1.662,11.26,11.26,0,0,1,.917,2.11,19.475,19.475,0,0,1,.59,2.453,23.882,23.882,0,0,1,.316,2.494h0c.054.775.081,1.585.081,2.408a4.789,4.789,0,0,1-1.343,3.643Zm0,0" transform="translate(0 -225.962)" fill="#475f7b"/>
    </g>
</svg>