<svg xmlns="http://www.w3.org/2000/svg" width="24" height="24" viewBox="0 0 24 24">
  <g id="Group_23490" data-name="Group 23490" transform="translate(2152 21203)">
    <g id="Group_23489" data-name="Group 23489">
      <g id="pending_actions_black_24dp" transform="translate(-2152 -21203)">
        <rect id="Rectangle_3016" data-name="Rectangle 3016" width="24" height="24" fill="none"/>
        <path id="Path_15621" data-name="Path 15621" d="M18,3H14.82A2.988,2.988,0,0,0,9.18,3H6A2.006,2.006,0,0,0,4,5V20a2.006,2.006,0,0,0,2,2h6.11a6.743,6.743,0,0,1-1.42-2H6V5H8V8h8V5h2v5.08a7.03,7.03,0,0,1,2,.6V5A2.006,2.006,0,0,0,18,3ZM12,5a1,1,0,1,1,1-1A1,1,0,0,1,12,5Z" fill="#97979e"/>
      </g>
      <path id="Path_15625" data-name="Path 15625" d="M3,9.976h8.956v-1H3Zm0,1.99h8.956v-1H3Zm0-3.98h8.956v-1H3ZM3,5V6h8.956V5Z" transform="translate(-2147.498 -21198.512)" fill="#97979e"/>
    </g>
  </g>
</svg>
