<svg xmlns="http://www.w3.org/2000/svg" xmlns:xlink="http://www.w3.org/1999/xlink" width="650" height="650" viewBox="0 0 650 650">
  <defs>
    <linearGradient id="linear-gradient" x1="0.5" x2="0.5" y2="1" gradientUnits="objectBoundingBox">
      <stop offset="0" stop-color="#10c4d3"/>
      <stop offset="0.257" stop-color="#11c7ce"/>
      <stop offset="0.56" stop-color="#17cfbf"/>
      <stop offset="0.885" stop-color="#20dea8"/>
      <stop offset="1" stop-color="#24e59e"/>
    </linearGradient>
    <clipPath id="clip-_4_VW-Logo">
      <rect width="650" height="650"/>
    </clipPath>
  </defs>
  <g id="_4_VW-Logo" data-name="4_VW-Logo" clip-path="url(#clip-_4_VW-Logo)">
    <rect width="650" height="650" fill="#fff"/>
    <rect id="Rectangle_1" data-name="Rectangle 1" width="650" height="650" rx="50" fill="url(#linear-gradient)"/>
    <g id="Group_7" data-name="Group 7" transform="translate(-423.722 -76.83)">
      <g id="Group_5" data-name="Group 5" transform="translate(489.722 180.83)">
        <g id="Group_4" data-name="Group 4">
          <path id="Path_12" data-name="Path 12" d="M862.176,291.694a129.432,129.432,0,0,0-56.859-89.5.762.762,0,0,0-.2-.148,128.2,128.2,0,0,0-53.267-19.995A126.192,126.192,0,0,0,734.1,180.83a128.7,128.7,0,0,0-51.473,10.658c-20.8,9.016-52.19,38.9-52.19,38.9L604.74,256.1l-36.412-36.412-.269.269a129.13,129.13,0,0,0-92.7-39.131,125.832,125.832,0,0,0-17.742,1.225,128.113,128.113,0,0,0-53.267,19.995.622.622,0,0,0-.221.148,129.378,129.378,0,0,0-21,198.8l1.946,1.949,36.412,36.412L531.461,549.33,568.194,512.6,578.5,502.291l26.24-26.223,25.7,25.7L641.269,512.6,678,549.33,714.631,512.7l.183-.186,36.629-36.629,36.546-36.529,37.606-37.623a129.53,129.53,0,0,0,36.581-110.039Zm-69.5,69.5a77.518,77.518,0,0,1-7.622,7.622l-33.793,33.81-35.708,35.691L677.9,475.968l-36.529-36.529.186-.186,21.1-21.116,15.53-15.513,4.448-4.465,17.9-17.894,50.8-50.8.134-.117,1.763-1.763.117-.135A26.005,26.005,0,0,0,717.719,289.8l-35.087,35.087-4.548,4.565-14.119,14.1-33.524,33.524-4.382,4.382-21.154,21.151-.183.186-.169-.169-21.168-21.168-91.676-91.676a26,26,0,0,0-35.591,37.671l.121.135,1.76,1.763.135.117a2.561,2.561,0,0,0,.221.2v.017l88.433,88.436,21.137,21.134.169.169-36.529,36.546-.186-.183-4.548-4.551-32.081-32.082-.842-.838L458.22,402.623l-33.675-33.676c-.977-.856-1.932-1.711-2.871-2.6q-2.619-2.541-5.038-5.3a77.642,77.642,0,0,1,25.384-120.956c.083-.031.166-.083.252-.117a77.66,77.66,0,0,1,84.558,12.156v-.856l77.909,77.909,1.173-1.19,24.529-24.529,10.827-10.827,41.363-40.507a77.66,77.66,0,0,1,84.558-12.156c.086.034.152.086.235.117a77.651,77.651,0,0,1,25.25,121.1Z" transform="translate(-345.945 -180.83)" fill="#fff"/>
          <path id="Path_13" data-name="Path 13" d="M483.766,324.307,472.737,335.32l-25.7,25.718L410.3,324.307,420.8,313.8l26.239-26.222Z" transform="translate(-188.241 80.738)" fill="#fff"/>
        </g>
      </g>
    </g>
  </g>
</svg>
